<svg id="Layer_1" data-name="Layer 1" xmlns="http://www.w3.org/2000/svg" viewBox="0 0 441.94 56.03"><defs><style>.cls-1{fill:#c41818;}</style></defs><rect class="cls-1" x="49.29" y="0.8" width="12.56" height="45.75"/><path class="cls-1" d="M105,23.1a10.35,10.35,0,0,0,4.93-4.42,12.43,12.43,0,0,0,1.64-6.15,12.9,12.9,0,0,0-.74-4.29,12.18,12.18,0,0,0-2.09-3.73,10.86,10.86,0,0,0-3.29-2.68,9.13,9.13,0,0,0-4.32-1H74.55V46.55H97a28.23,28.23,0,0,0,6.35-.68,16.49,16.49,0,0,0,5.25-2.09,10,10,0,0,0,4.83-9,12,12,0,0,0-2.28-7.7A12.08,12.08,0,0,0,105,23.1ZM87.11,11.5h9a3.11,3.11,0,0,1,2.12.8A3.45,3.45,0,0,1,99.1,15c0,1.41-.36,2.36-1.07,2.83a4.16,4.16,0,0,1-2.35.71H87.11ZM99.64,35A3.74,3.74,0,0,1,97,36H87.11V28.32H97.49a2.82,2.82,0,0,1,2.31,1.12,4.3,4.3,0,0,1,.91,2.8A3.57,3.57,0,0,1,99.64,35Z"/><polygon class="cls-1" points="136.41 0.8 123.84 0.8 123.84 46.55 157.16 46.55 157.16 35.59 136.41 35.59 136.41 0.8"/><polygon class="cls-1" points="178.94 28.38 195.56 28.38 195.56 18.19 178.94 18.19 178.94 11.75 198.39 11.75 198.39 0.8 166.37 0.8 166.37 46.55 198.97 46.55 198.97 35.59 178.94 35.59 178.94 28.38"/><path class="cls-1" d="M237.37,23.1a10.79,10.79,0,0,0,4.84-4.29,12.09,12.09,0,0,0,1.73-6.35,12.71,12.71,0,0,0-.73-4.22,12.41,12.41,0,0,0-2.1-3.73,10.74,10.74,0,0,0-3.29-2.68,9.09,9.09,0,0,0-4.31-1h-22V46.55h21.52a14,14,0,0,0,5-.87,12.45,12.45,0,0,0,4.06-2.45,12,12,0,0,0,2.77-3.73,11,11,0,0,0,1-4.74,12.19,12.19,0,0,0-2.29-7.35A11.42,11.42,0,0,0,237.37,23.1Zm3.35,14.14A9.16,9.16,0,0,1,239,40a8,8,0,0,1-2.64,1.9,7.65,7.65,0,0,1-3.28.71H216V4.73h16.11a6.8,6.8,0,0,1,3,.68,7.68,7.68,0,0,1,2.38,1.8A7.87,7.87,0,0,1,239,9.89a9.61,9.61,0,0,1,.55,3.28,8.76,8.76,0,0,1-.58,3.19A8.27,8.27,0,0,1,237.34,19a8.62,8.62,0,0,1-2.51,1.87,7.07,7.07,0,0,1-3.13.7h-6.13l-4.76,3.68h12.7a6.67,6.67,0,0,1,3.12.74A8.38,8.38,0,0,1,239.15,28a8.84,8.84,0,0,1,1.64,2.77,9.57,9.57,0,0,1,.58,3.26A8.53,8.53,0,0,1,240.72,37.24Z"/><path class="cls-1" d="M286.22,27.19a13,13,0,0,0,3.22-3.1A14.15,14.15,0,0,0,291.53,20a15.55,15.55,0,0,0,.74-4.8,14.47,14.47,0,0,0-1-5.22,15.3,15.3,0,0,0-2.81-4.61,14.21,14.21,0,0,0-4.32-3.28A12,12,0,0,0,278.68.8H259.41V46.55h4.45V4.8h14.62a8.13,8.13,0,0,1,3.58.83,9.53,9.53,0,0,1,3,2.26,10.91,10.91,0,0,1,2,3.32,10.67,10.67,0,0,1,.74,4,12,12,0,0,1-.64,3.93,11.49,11.49,0,0,1-1.8,3.35,8.7,8.7,0,0,1-2.81,2.35,7.64,7.64,0,0,1-3.64.87h-4l2.56,4L286,43.14h0l2.18,3.41h5.09L282,28.9A11.48,11.48,0,0,0,286.22,27.19Z"/><polygon class="cls-1" points="320.56 0.8 301.43 46.55 306.2 46.55 322.43 6.08 338.54 46.55 343.38 46.55 324.24 0.8 320.56 0.8"/><rect class="cls-1" x="354.85" y="0.86" width="4.45" height="45.69"/><path class="cls-1" d="M440.82,24.14a5.57,5.57,0,0,0-9.77,1.68L424.61,25a9.22,9.22,0,0,0-1.83-5.63,8.94,8.94,0,0,0-.91-1l4.56-5.11A7.32,7.32,0,1,0,425,11.79l.07.07-4.7,5.26a9.28,9.28,0,0,0-6.39-1.31V.86h-4.44v38L379.2.8h-3.48V46.55h4.45V9.17l29.9,37.38h3.86V34a9.26,9.26,0,0,0,5-.6l3.12,5.09a5,5,0,1,0,1.73-1l-3.12-5.09.25-.17A9.18,9.18,0,0,0,424.39,27l6.41.81a5.52,5.52,0,0,0,1.1,3.06,5.58,5.58,0,1,0,8.92-6.7Z"/><path class="cls-1" d="M30.41,23.1a10.35,10.35,0,0,0,4.93-4.42A12.43,12.43,0,0,0,37,12.53a12.9,12.9,0,0,0-.74-4.29,12.18,12.18,0,0,0-2.09-3.73,10.86,10.86,0,0,0-3.29-2.68,9.13,9.13,0,0,0-4.32-1H0V46.55H0v6.21a3.27,3.27,0,0,0,5,2.77l14.35-9h3.13a28.23,28.23,0,0,0,6.35-.68,16.49,16.49,0,0,0,5.25-2.09,10,10,0,0,0,4.83-9,12,12,0,0,0-2.28-7.7A12.08,12.08,0,0,0,30.41,23.1ZM12.56,11.5h9a3.11,3.11,0,0,1,2.12.8,3.45,3.45,0,0,1,.9,2.68c0,1.41-.35,2.36-1.06,2.83a4.16,4.16,0,0,1-2.35.71H12.56ZM25.09,35a3.74,3.74,0,0,1-2.61,1H12.56V28.32H22.93a2.83,2.83,0,0,1,2.32,1.12,4.3,4.3,0,0,1,.9,2.8A3.57,3.57,0,0,1,25.09,35Z"/></svg>